<mxfile host="65bd71144e">
    <diagram name="Pagina-1" id="rnfxSgNdfk0JlfS6oZy4">
        <mxGraphModel dx="1216" dy="581" grid="1" gridSize="10" guides="1" tooltips="1" connect="1" arrows="1" fold="1" page="1" pageScale="1" pageWidth="827" pageHeight="1169" math="0" shadow="0">
            <root>
                <mxCell id="0"/>
                <mxCell id="1" parent="0"/>
                <mxCell id="7HYfUetMgNzGJdMcLH0i-1" value="" style="rounded=0;whiteSpace=wrap;html=1;" parent="1" vertex="1">
                    <mxGeometry width="840" height="80" as="geometry"/>
                </mxCell>
                <mxCell id="7HYfUetMgNzGJdMcLH0i-2" value="Text" style="text;html=1;align=center;verticalAlign=middle;whiteSpace=wrap;rounded=0;" parent="1" vertex="1">
                    <mxGeometry x="180" y="25" width="60" height="30" as="geometry"/>
                </mxCell>
                <mxCell id="7HYfUetMgNzGJdMcLH0i-3" value="Text" style="text;html=1;align=center;verticalAlign=middle;whiteSpace=wrap;rounded=0;" parent="1" vertex="1">
                    <mxGeometry x="110" y="25" width="60" height="30" as="geometry"/>
                </mxCell>
                <mxCell id="7HYfUetMgNzGJdMcLH0i-4" value="Text" style="text;html=1;align=center;verticalAlign=middle;whiteSpace=wrap;rounded=0;" parent="1" vertex="1">
                    <mxGeometry x="240" y="25" width="60" height="30" as="geometry"/>
                </mxCell>
                <mxCell id="7HYfUetMgNzGJdMcLH0i-5" value="Text" style="text;html=1;align=center;verticalAlign=middle;whiteSpace=wrap;rounded=0;" parent="1" vertex="1">
                    <mxGeometry x="310" y="25" width="60" height="30" as="geometry"/>
                </mxCell>
                <mxCell id="7HYfUetMgNzGJdMcLH0i-6" value="regristreren" style="text;html=1;align=center;verticalAlign=middle;whiteSpace=wrap;rounded=0;" parent="1" vertex="1">
                    <mxGeometry x="680" y="25" width="60" height="30" as="geometry"/>
                </mxCell>
                <mxCell id="7HYfUetMgNzGJdMcLH0i-7" value="login" style="text;html=1;align=center;verticalAlign=middle;whiteSpace=wrap;rounded=0;" parent="1" vertex="1">
                    <mxGeometry x="750" y="25" width="60" height="30" as="geometry"/>
                </mxCell>
                <mxCell id="7HYfUetMgNzGJdMcLH0i-8" value="/" style="text;html=1;align=center;verticalAlign=middle;whiteSpace=wrap;rounded=0;" parent="1" vertex="1">
                    <mxGeometry x="740" y="25" width="30" height="30" as="geometry"/>
                </mxCell>
                <mxCell id="7HYfUetMgNzGJdMcLH0i-9" value="" style="rounded=0;whiteSpace=wrap;html=1;" parent="1" vertex="1">
                    <mxGeometry width="100" height="80" as="geometry"/>
                </mxCell>
                <mxCell id="7HYfUetMgNzGJdMcLH0i-10" value="" style="endArrow=none;html=1;rounded=0;entryX=1;entryY=0;entryDx=0;entryDy=0;exitX=0;exitY=1;exitDx=0;exitDy=0;" parent="1" source="7HYfUetMgNzGJdMcLH0i-9" target="7HYfUetMgNzGJdMcLH0i-9" edge="1">
                    <mxGeometry width="50" height="50" relative="1" as="geometry">
                        <mxPoint x="390" y="140" as="sourcePoint"/>
                        <mxPoint x="440" y="90" as="targetPoint"/>
                        <Array as="points"/>
                    </mxGeometry>
                </mxCell>
                <mxCell id="7HYfUetMgNzGJdMcLH0i-11" value="" style="endArrow=none;html=1;rounded=0;entryX=1;entryY=1;entryDx=0;entryDy=0;exitX=0;exitY=0;exitDx=0;exitDy=0;" parent="1" source="7HYfUetMgNzGJdMcLH0i-9" target="7HYfUetMgNzGJdMcLH0i-9" edge="1">
                    <mxGeometry width="50" height="50" relative="1" as="geometry">
                        <mxPoint x="10" y="90" as="sourcePoint"/>
                        <mxPoint x="110" y="10" as="targetPoint"/>
                        <Array as="points"/>
                    </mxGeometry>
                </mxCell>
                <mxCell id="7HYfUetMgNzGJdMcLH0i-12" value="" style="rounded=0;whiteSpace=wrap;html=1;" parent="1" vertex="1">
                    <mxGeometry y="80" width="840" height="1580" as="geometry"/>
                </mxCell>
                <mxCell id="7HYfUetMgNzGJdMcLH0i-14" value="&lt;font style=&quot;font-size: 24px;&quot;&gt;lorem ipsum lorem ipsum lorem ipsum lorem ipsum lorem ipsumlorem ipsum lorem&lt;/font&gt;" style="text;html=1;align=center;verticalAlign=middle;whiteSpace=wrap;rounded=0;" parent="1" vertex="1">
                    <mxGeometry x="145" y="130" width="550" height="30" as="geometry"/>
                </mxCell>
                <mxCell id="7HYfUetMgNzGJdMcLH0i-15" value="" style="rounded=0;whiteSpace=wrap;html=1;perimeterSpacing=1;arcSize=12;" parent="1" vertex="1">
                    <mxGeometry x="80" y="270" width="670" height="300" as="geometry"/>
                </mxCell>
                <mxCell id="7HYfUetMgNzGJdMcLH0i-16" value="" style="rounded=0;whiteSpace=wrap;html=1;" parent="1" vertex="1">
                    <mxGeometry x="145" y="460" width="235" height="240" as="geometry"/>
                </mxCell>
                <mxCell id="7HYfUetMgNzGJdMcLH0i-17" value="" style="rounded=0;whiteSpace=wrap;html=1;" parent="1" vertex="1">
                    <mxGeometry x="445" y="460" width="235" height="240" as="geometry"/>
                </mxCell>
                <mxCell id="7HYfUetMgNzGJdMcLH0i-19" value="&lt;h1 style=&quot;margin-top: 0px;&quot;&gt;Heading&lt;/h1&gt;&lt;p&gt;Lorem ipsum dolor sit amet, consectetur adipisicing elit, sed do eiusmod tempor incididunt ut labore et dolore magna aliqua.&lt;/p&gt;" style="text;html=1;whiteSpace=wrap;overflow=hidden;rounded=0;" parent="1" vertex="1">
                    <mxGeometry x="172.5" y="470" width="180" height="120" as="geometry"/>
                </mxCell>
                <mxCell id="7HYfUetMgNzGJdMcLH0i-20" value="&lt;h1 style=&quot;margin-top: 0px;&quot;&gt;Heading&lt;/h1&gt;&lt;p&gt;Lorem ipsum dolor sit amet, consectetur adipisicing elit, sed do eiusmod tempor incididunt ut labore et dolore magna aliqua.&lt;/p&gt;" style="text;html=1;whiteSpace=wrap;overflow=hidden;rounded=0;" parent="1" vertex="1">
                    <mxGeometry x="472.5" y="470" width="180" height="120" as="geometry"/>
                </mxCell>
                <mxCell id="7HYfUetMgNzGJdMcLH0i-21" value="" style="rounded=1;whiteSpace=wrap;html=1;" parent="1" vertex="1">
                    <mxGeometry x="180" y="640" width="170" height="40" as="geometry"/>
                </mxCell>
                <mxCell id="7HYfUetMgNzGJdMcLH0i-22" value="" style="rounded=1;whiteSpace=wrap;html=1;" parent="1" vertex="1">
                    <mxGeometry x="477.5" y="640" width="170" height="40" as="geometry"/>
                </mxCell>
                <mxCell id="7HYfUetMgNzGJdMcLH0i-23" value="button" style="text;html=1;align=center;verticalAlign=middle;whiteSpace=wrap;rounded=0;" parent="1" vertex="1">
                    <mxGeometry x="230" y="645" width="60" height="30" as="geometry"/>
                </mxCell>
                <mxCell id="7HYfUetMgNzGJdMcLH0i-24" value="button" style="text;html=1;align=center;verticalAlign=middle;whiteSpace=wrap;rounded=0;" parent="1" vertex="1">
                    <mxGeometry x="532.5" y="645" width="60" height="30" as="geometry"/>
                </mxCell>
                <mxCell id="7HYfUetMgNzGJdMcLH0i-25" value="" style="rounded=0;whiteSpace=wrap;html=1;" parent="1" vertex="1">
                    <mxGeometry y="1100" width="840" height="400" as="geometry"/>
                </mxCell>
                <mxCell id="7HYfUetMgNzGJdMcLH0i-26" value="bla bla bla bla bla bla bla bla bla" style="text;html=1;align=center;verticalAlign=middle;whiteSpace=wrap;rounded=0;fontSize=24;" parent="1" vertex="1">
                    <mxGeometry x="315" y="1130" width="210" height="30" as="geometry"/>
                </mxCell>
                <mxCell id="7HYfUetMgNzGJdMcLH0i-27" value="" style="rounded=1;whiteSpace=wrap;html=1;" parent="1" vertex="1">
                    <mxGeometry x="70" y="1200" width="200" height="260" as="geometry"/>
                </mxCell>
                <mxCell id="7HYfUetMgNzGJdMcLH0i-28" value="" style="rounded=1;whiteSpace=wrap;html=1;" parent="1" vertex="1">
                    <mxGeometry x="320" y="1200" width="200" height="260" as="geometry"/>
                </mxCell>
                <mxCell id="7HYfUetMgNzGJdMcLH0i-29" value="" style="rounded=1;whiteSpace=wrap;html=1;" parent="1" vertex="1">
                    <mxGeometry x="570" y="1200" width="200" height="260" as="geometry"/>
                </mxCell>
                <mxCell id="7HYfUetMgNzGJdMcLH0i-30" value="" style="rounded=0;whiteSpace=wrap;html=1;" parent="1" vertex="1">
                    <mxGeometry y="700" width="840" height="400" as="geometry"/>
                </mxCell>
                <mxCell id="7HYfUetMgNzGJdMcLH0i-31" value="&lt;h1 style=&quot;margin-top: 0px;&quot;&gt;&lt;font style=&quot;font-size: 37px;&quot;&gt;Heading&lt;/font&gt;&lt;/h1&gt;&lt;p&gt;&lt;font style=&quot;font-size: 15px;&quot;&gt;Lorem ipsum dolor sit amet, consectetur adipisicing elit, sed do eiusmod tempor incididunt ut labore et dolore magna aliqua.&amp;nbsp;&lt;/font&gt;&lt;span style=&quot;font-size: 15px; background-color: transparent; color: light-dark(rgb(0, 0, 0), rgb(255, 255, 255));&quot;&gt;Lorem ipsum dolor sit amet,&amp;nbsp;&lt;/span&gt;&lt;/p&gt;&lt;p&gt;&lt;span style=&quot;font-size: 15px; background-color: transparent; color: light-dark(rgb(0, 0, 0), rgb(255, 255, 255));&quot;&gt;consectetur adipisicing elit, sed do eiusmod tempor incididunt ut labore et dolore magna aliqua.&amp;nbsp;&lt;/span&gt;&lt;span style=&quot;font-size: 15px; background-color: transparent; color: light-dark(rgb(0, 0, 0), rgb(255, 255, 255));&quot;&gt;Lorem ipsum dolor sit amet, consectetur adipisicing elit, sed do eiusmod tempor incididunt ut labore et dolore magna aliqua.&lt;/span&gt;&lt;/p&gt;" style="text;html=1;whiteSpace=wrap;overflow=hidden;rounded=0;align=center;" parent="1" vertex="1">
                    <mxGeometry x="90" y="740" width="620" height="280" as="geometry"/>
                </mxCell>
                <mxCell id="7HYfUetMgNzGJdMcLH0i-32" value="" style="rounded=1;whiteSpace=wrap;html=1;" parent="1" vertex="1">
                    <mxGeometry x="315" y="990" width="170" height="40" as="geometry"/>
                </mxCell>
                <mxCell id="7HYfUetMgNzGJdMcLH0i-33" value="button" style="text;html=1;align=center;verticalAlign=middle;whiteSpace=wrap;rounded=0;" parent="1" vertex="1">
                    <mxGeometry x="370" y="995" width="60" height="30" as="geometry"/>
                </mxCell>
                <mxCell id="7HYfUetMgNzGJdMcLH0i-34" value="" style="rounded=1;whiteSpace=wrap;html=1;" parent="1" vertex="1">
                    <mxGeometry x="85" y="1390" width="170" height="40" as="geometry"/>
                </mxCell>
                <mxCell id="7HYfUetMgNzGJdMcLH0i-35" value="button" style="text;html=1;align=center;verticalAlign=middle;whiteSpace=wrap;rounded=0;" parent="1" vertex="1">
                    <mxGeometry x="140" y="1395" width="60" height="30" as="geometry"/>
                </mxCell>
                <mxCell id="7HYfUetMgNzGJdMcLH0i-36" value="" style="rounded=1;whiteSpace=wrap;html=1;" parent="1" vertex="1">
                    <mxGeometry x="657.5" y="1590" width="170" height="40" as="geometry"/>
                </mxCell>
                <mxCell id="7HYfUetMgNzGJdMcLH0i-37" value="button" style="text;html=1;align=center;verticalAlign=middle;whiteSpace=wrap;rounded=0;" parent="1" vertex="1">
                    <mxGeometry x="712.5" y="1595" width="60" height="30" as="geometry"/>
                </mxCell>
                <mxCell id="7HYfUetMgNzGJdMcLH0i-38" value="" style="rounded=1;whiteSpace=wrap;html=1;" parent="1" vertex="1">
                    <mxGeometry x="585" y="1390" width="170" height="40" as="geometry"/>
                </mxCell>
                <mxCell id="7HYfUetMgNzGJdMcLH0i-39" value="button" style="text;html=1;align=center;verticalAlign=middle;whiteSpace=wrap;rounded=0;" parent="1" vertex="1">
                    <mxGeometry x="640" y="1395" width="60" height="30" as="geometry"/>
                </mxCell>
                <mxCell id="7HYfUetMgNzGJdMcLH0i-40" value="&lt;h1 style=&quot;margin-top: 0px;&quot;&gt;Heading&lt;/h1&gt;&lt;p&gt;Lorem ipsum dolor sit amet, consectetur adipisicing elit, sed do eiusmod tempor incididunt ut labore et dolore magna aliqua.&lt;/p&gt;" style="text;html=1;whiteSpace=wrap;overflow=hidden;rounded=0;align=center;" parent="1" vertex="1">
                    <mxGeometry x="250" y="290" width="340" height="120" as="geometry"/>
                </mxCell>
                <mxCell id="7HYfUetMgNzGJdMcLH0i-41" value="&lt;h1 style=&quot;margin-top: 0px;&quot;&gt;Heading&lt;/h1&gt;&lt;p&gt;Lorem ipsum dolor sit amet, consectetur adipisicing elit, sed do eiusmod tempor incididunt ut labore et dolore magna aliqua.&lt;/p&gt;" style="text;html=1;whiteSpace=wrap;overflow=hidden;rounded=0;align=center;" parent="1" vertex="1">
                    <mxGeometry x="85" y="1230" width="180" height="120" as="geometry"/>
                </mxCell>
                <mxCell id="7HYfUetMgNzGJdMcLH0i-42" value="&lt;h1 style=&quot;margin-top: 0px;&quot;&gt;Heading&lt;/h1&gt;&lt;p&gt;Lorem ipsum dolor sit amet, consectetur adipisicing elit, sed do eiusmod tempor incididunt ut labore et dolore magna aliqua.&lt;/p&gt;" style="text;html=1;whiteSpace=wrap;overflow=hidden;rounded=0;align=center;" parent="1" vertex="1">
                    <mxGeometry x="330" y="1230" width="180" height="120" as="geometry"/>
                </mxCell>
                <mxCell id="7HYfUetMgNzGJdMcLH0i-43" value="&lt;h1 style=&quot;margin-top: 0px;&quot;&gt;Heading&lt;/h1&gt;&lt;p&gt;Lorem ipsum dolor sit amet, consectetur adipisicing elit, sed do eiusmod tempor incididunt ut labore et dolore magna aliqua.&lt;/p&gt;" style="text;html=1;whiteSpace=wrap;overflow=hidden;rounded=0;align=center;" parent="1" vertex="1">
                    <mxGeometry x="585" y="1230" width="180" height="120" as="geometry"/>
                </mxCell>
                <mxCell id="7HYfUetMgNzGJdMcLH0i-44" value="prijs" style="text;html=1;align=center;verticalAlign=middle;whiteSpace=wrap;rounded=0;" parent="1" vertex="1">
                    <mxGeometry x="140" y="1350" width="60" height="30" as="geometry"/>
                </mxCell>
                <mxCell id="7HYfUetMgNzGJdMcLH0i-45" value="prijs" style="text;html=1;align=center;verticalAlign=middle;whiteSpace=wrap;rounded=0;" parent="1" vertex="1">
                    <mxGeometry x="390" y="1350" width="60" height="30" as="geometry"/>
                </mxCell>
                <mxCell id="7HYfUetMgNzGJdMcLH0i-46" value="prijs" style="text;html=1;align=center;verticalAlign=middle;whiteSpace=wrap;rounded=0;" parent="1" vertex="1">
                    <mxGeometry x="645" y="1350" width="60" height="30" as="geometry"/>
                </mxCell>
                <mxCell id="7HYfUetMgNzGJdMcLH0i-48" value="&lt;ul style=&quot;line-height: 240%;&quot;&gt;&lt;li&gt;Value 1&lt;/li&gt;&lt;li&gt;Value 2&lt;/li&gt;&lt;li&gt;Value 3&lt;/li&gt;&lt;/ul&gt;" style="text;strokeColor=none;fillColor=none;html=1;whiteSpace=wrap;verticalAlign=middle;overflow=hidden;spacing=0;align=left;spacingTop=0;strokeWidth=0;horizontal=1;arcSize=12;autosize=0;fixedWidth=0;" parent="1" vertex="1">
                    <mxGeometry x="20" y="1520" width="100" height="90" as="geometry"/>
                </mxCell>
                <UserObject label="%date{ddd mmm dd yyyy HH:MM:ss}%" placeholders="1" id="7HYfUetMgNzGJdMcLH0i-49">
                    <mxCell style="text;html=1;strokeColor=none;fillColor=none;align=center;verticalAlign=middle;whiteSpace=wrap;overflow=hidden;" parent="1" vertex="1">
                        <mxGeometry x="120" y="1535" width="160" height="20" as="geometry"/>
                    </mxCell>
                </UserObject>
                <UserObject label="%date{ddd mmm dd yyyy HH:MM:ss}%" placeholders="1" id="7HYfUetMgNzGJdMcLH0i-50">
                    <mxCell style="text;html=1;strokeColor=none;fillColor=none;align=center;verticalAlign=middle;whiteSpace=wrap;overflow=hidden;" parent="1" vertex="1">
                        <mxGeometry x="120" y="1560" width="160" height="20" as="geometry"/>
                    </mxCell>
                </UserObject>
                <UserObject label="%date{ddd mmm dd yyyy HH:MM:ss}%" placeholders="1" id="7HYfUetMgNzGJdMcLH0i-51">
                    <mxCell style="text;html=1;strokeColor=none;fillColor=none;align=center;verticalAlign=middle;whiteSpace=wrap;overflow=hidden;" parent="1" vertex="1">
                        <mxGeometry x="120" y="1590" width="160" height="20" as="geometry"/>
                    </mxCell>
                </UserObject>
                <mxCell id="7HYfUetMgNzGJdMcLH0i-53" value="&lt;h1 style=&quot;margin-top: 0px;&quot;&gt;Heading&lt;/h1&gt;&lt;p&gt;Lorem ipsum dolor sit amet, consectetur adipisicing elit, sed do eiusmod tempor incididunt ut labore et dolore magna aliqua.&lt;/p&gt;" style="text;html=1;whiteSpace=wrap;overflow=hidden;rounded=0;align=center;" parent="1" vertex="1">
                    <mxGeometry x="477.5" y="1520" width="180" height="120" as="geometry"/>
                </mxCell>
                <mxCell id="2" value="" style="rounded=1;whiteSpace=wrap;html=1;" parent="1" vertex="1">
                    <mxGeometry x="335" y="1390" width="170" height="40" as="geometry"/>
                </mxCell>
                <mxCell id="3" value="button" style="text;html=1;align=center;verticalAlign=middle;whiteSpace=wrap;rounded=0;" parent="1" vertex="1">
                    <mxGeometry x="390" y="1395" width="60" height="30" as="geometry"/>
                </mxCell>
            </root>
        </mxGraphModel>
    </diagram>
</mxfile>